<svg width="1238" height="135" viewBox="0 0 1238 135" fill="none" xmlns="http://www.w3.org/2000/svg">
<rect width="1238" height="135" fill="white" fill-opacity="0.2"/>
<rect x="27" y="22" width="1188" height="85.7443" rx="10" fill="white"/>
<path d="M80.008 55V45.158H81.912V55H80.008ZM81.408 55V53.306H86.42V55H81.408ZM92.137 55.154C91.4184 55.154 90.7464 55.0233 90.121 54.762C89.505 54.5007 88.9637 54.1413 88.497 53.684C88.0397 53.2173 87.6804 52.676 87.419 52.06C87.1577 51.4347 87.027 50.7673 87.027 50.058C87.027 49.3487 87.153 48.6907 87.405 48.084C87.6664 47.468 88.0257 46.9313 88.483 46.474C88.9497 46.0073 89.491 45.648 90.107 45.396C90.723 45.1347 91.3904 45.004 92.109 45.004C92.837 45.004 93.509 45.1347 94.125 45.396C94.741 45.648 95.2777 46.0073 95.735 46.474C96.2017 46.9313 96.5657 47.468 96.827 48.084C97.0884 48.7 97.219 49.3627 97.219 50.072C97.219 50.7813 97.0884 51.444 96.827 52.06C96.5657 52.676 96.2017 53.2173 95.735 53.684C95.2777 54.1413 94.741 54.5007 94.125 54.762C93.5184 55.0233 92.8557 55.154 92.137 55.154ZM92.109 53.376C92.7437 53.376 93.2944 53.236 93.761 52.956C94.2277 52.676 94.5917 52.2887 94.853 51.794C95.1237 51.2993 95.259 50.7207 95.259 50.058C95.259 49.5727 95.1844 49.1293 95.035 48.728C94.8857 48.3267 94.671 47.9813 94.391 47.692C94.111 47.3933 93.7797 47.1647 93.397 47.006C93.0144 46.8473 92.585 46.768 92.109 46.768C91.493 46.768 90.947 46.908 90.471 47.188C90.0044 47.4587 89.6357 47.8413 89.365 48.336C89.1037 48.8307 88.973 49.4047 88.973 50.058C88.973 50.5527 89.0477 51.0053 89.197 51.416C89.3557 51.8267 89.5704 52.1767 89.841 52.466C90.121 52.7553 90.4524 52.9793 90.835 53.138C91.227 53.2967 91.6517 53.376 92.109 53.376ZM103.815 55.14C103.097 55.14 102.429 55.014 101.813 54.762C101.197 54.5007 100.656 54.1413 100.189 53.684C99.732 53.2173 99.3774 52.676 99.1254 52.06C98.8827 51.444 98.7614 50.7813 98.7614 50.072C98.7614 49.3627 98.8827 48.7 99.1254 48.084C99.3774 47.468 99.732 46.9313 100.189 46.474C100.656 46.0167 101.193 45.6573 101.799 45.396C102.415 45.1347 103.087 45.004 103.815 45.004C104.599 45.004 105.29 45.1347 105.887 45.396C106.485 45.648 107.012 45.998 107.469 46.446L106.181 47.734C105.911 47.4353 105.579 47.202 105.187 47.034C104.795 46.866 104.338 46.782 103.815 46.782C103.358 46.782 102.938 46.8613 102.555 47.02C102.182 47.1693 101.855 47.3933 101.575 47.692C101.295 47.9813 101.081 48.3313 100.931 48.742C100.782 49.1433 100.707 49.5867 100.707 50.072C100.707 50.5667 100.782 51.0147 100.931 51.416C101.081 51.8173 101.295 52.1673 101.575 52.466C101.855 52.7553 102.182 52.9793 102.555 53.138C102.938 53.2967 103.358 53.376 103.815 53.376C104.366 53.376 104.837 53.292 105.229 53.124C105.631 52.956 105.967 52.718 106.237 52.41L107.525 53.698C107.068 54.1553 106.536 54.51 105.929 54.762C105.323 55.014 104.618 55.14 103.815 55.14ZM108.275 55L112.237 45.158H113.791L117.739 55H115.709L112.657 46.922H113.357L110.263 55H108.275ZM110.375 53.166V51.57H115.667V53.166H110.375ZM120.562 55V45.368H122.48V55H120.562ZM117.426 46.852V45.158H125.616V46.852H117.426ZM127.33 55V45.158H129.234V55H127.33ZM136.26 55.154C135.541 55.154 134.869 55.0233 134.244 54.762C133.628 54.5007 133.087 54.1413 132.62 53.684C132.163 53.2173 131.803 52.676 131.542 52.06C131.281 51.4347 131.15 50.7673 131.15 50.058C131.15 49.3487 131.276 48.6907 131.528 48.084C131.789 47.468 132.149 46.9313 132.606 46.474C133.073 46.0073 133.614 45.648 134.23 45.396C134.846 45.1347 135.513 45.004 136.232 45.004C136.96 45.004 137.632 45.1347 138.248 45.396C138.864 45.648 139.401 46.0073 139.858 46.474C140.325 46.9313 140.689 47.468 140.95 48.084C141.211 48.7 141.342 49.3627 141.342 50.072C141.342 50.7813 141.211 51.444 140.95 52.06C140.689 52.676 140.325 53.2173 139.858 53.684C139.401 54.1413 138.864 54.5007 138.248 54.762C137.641 55.0233 136.979 55.154 136.26 55.154ZM136.232 53.376C136.867 53.376 137.417 53.236 137.884 52.956C138.351 52.676 138.715 52.2887 138.976 51.794C139.247 51.2993 139.382 50.7207 139.382 50.058C139.382 49.5727 139.307 49.1293 139.158 48.728C139.009 48.3267 138.794 47.9813 138.514 47.692C138.234 47.3933 137.903 47.1647 137.52 47.006C137.137 46.8473 136.708 46.768 136.232 46.768C135.616 46.768 135.07 46.908 134.594 47.188C134.127 47.4587 133.759 47.8413 133.488 48.336C133.227 48.8307 133.096 49.4047 133.096 50.058C133.096 50.5527 133.171 51.0053 133.32 51.416C133.479 51.8267 133.693 52.1767 133.964 52.466C134.244 52.7553 134.575 52.9793 134.958 53.138C135.35 53.2967 135.775 53.376 136.232 53.376ZM143.251 55V45.158H144.581L145.155 47.062V55H143.251ZM150.055 55L144.217 47.44L144.581 45.158L150.419 52.718L150.055 55ZM150.055 55L149.509 53.152V45.158H151.427V55H150.055Z" fill="#30343B"/>
<path d="M82.29 83.15C81.58 83.15 80.94 82.99 80.37 82.67C79.8 82.34 79.35 81.895 79.02 81.335C78.69 80.775 78.525 80.14 78.525 79.43C78.525 78.73 78.685 78.1 79.005 77.54C79.335 76.98 79.775 76.54 80.325 76.22C80.885 75.89 81.51 75.725 82.2 75.725C82.86 75.725 83.44 75.875 83.94 76.175C84.45 76.475 84.845 76.89 85.125 77.42C85.415 77.95 85.56 78.55 85.56 79.22C85.56 79.32 85.555 79.43 85.545 79.55C85.535 79.66 85.515 79.79 85.485 79.94H79.47V78.815H84.765L84.27 79.25C84.27 78.77 84.185 78.365 84.015 78.035C83.845 77.695 83.605 77.435 83.295 77.255C82.985 77.065 82.61 76.97 82.17 76.97C81.71 76.97 81.305 77.07 80.955 77.27C80.605 77.47 80.335 77.75 80.145 78.11C79.955 78.47 79.86 78.895 79.86 79.385C79.86 79.885 79.96 80.325 80.16 80.705C80.36 81.075 80.645 81.365 81.015 81.575C81.385 81.775 81.81 81.875 82.29 81.875C82.69 81.875 83.055 81.805 83.385 81.665C83.725 81.525 84.015 81.315 84.255 81.035L85.125 81.92C84.785 82.32 84.365 82.625 83.865 82.835C83.375 83.045 82.85 83.15 82.29 83.15ZM89.987 86.135C89.257 86.135 88.607 86 88.037 85.73C87.477 85.46 87.027 85.08 86.687 84.59L87.557 83.705C87.847 84.075 88.192 84.355 88.592 84.545C88.992 84.745 89.467 84.845 90.017 84.845C90.747 84.845 91.322 84.65 91.742 84.26C92.172 83.88 92.387 83.365 92.387 82.715V80.945L92.627 79.34L92.387 77.75V75.875H93.737V82.715C93.737 83.395 93.577 83.99 93.257 84.5C92.947 85.01 92.507 85.41 91.937 85.7C91.377 85.99 90.727 86.135 89.987 86.135ZM89.987 82.88C89.337 82.88 88.752 82.725 88.232 82.415C87.722 82.105 87.317 81.68 87.017 81.14C86.717 80.59 86.567 79.975 86.567 79.295C86.567 78.615 86.717 78.01 87.017 77.48C87.317 76.94 87.722 76.515 88.232 76.205C88.752 75.885 89.337 75.725 89.987 75.725C90.547 75.725 91.042 75.835 91.472 76.055C91.902 76.275 92.242 76.585 92.492 76.985C92.752 77.375 92.892 77.835 92.912 78.365V80.255C92.882 80.775 92.737 81.235 92.477 81.635C92.227 82.025 91.887 82.33 91.457 82.55C91.027 82.77 90.537 82.88 89.987 82.88ZM90.257 81.605C90.697 81.605 91.082 81.51 91.412 81.32C91.752 81.13 92.012 80.865 92.192 80.525C92.372 80.175 92.462 79.77 92.462 79.31C92.462 78.85 92.367 78.45 92.177 78.11C91.997 77.76 91.742 77.49 91.412 77.3C91.082 77.1 90.692 77 90.242 77C89.792 77 89.397 77.1 89.057 77.3C88.717 77.49 88.447 77.76 88.247 78.11C88.057 78.45 87.962 78.845 87.962 79.295C87.962 79.745 88.057 80.145 88.247 80.495C88.447 80.845 88.717 81.12 89.057 81.32C89.407 81.51 89.807 81.605 90.257 81.605ZM96.9035 83.15C96.6235 83.15 96.3885 83.055 96.1985 82.865C96.0185 82.665 95.9285 82.43 95.9285 82.16C95.9285 81.88 96.0185 81.65 96.1985 81.47C96.3885 81.28 96.6235 81.185 96.9035 81.185C97.1835 81.185 97.4135 81.28 97.5935 81.47C97.7835 81.65 97.8785 81.88 97.8785 82.16C97.8785 82.43 97.7835 82.665 97.5935 82.865C97.4135 83.055 97.1835 83.15 96.9035 83.15ZM108.139 83.15C107.409 83.15 106.724 83.015 106.084 82.745C105.454 82.465 104.899 82.08 104.419 81.59C103.949 81.1 103.579 80.53 103.309 79.88C103.039 79.23 102.904 78.53 102.904 77.78C102.904 77.03 103.039 76.335 103.309 75.695C103.579 75.045 103.954 74.475 104.434 73.985C104.914 73.495 105.474 73.115 106.114 72.845C106.764 72.575 107.469 72.44 108.229 72.44C109.059 72.44 109.824 72.6 110.524 72.92C111.224 73.24 111.809 73.7 112.279 74.3L111.304 75.275C110.974 74.795 110.539 74.43 109.999 74.18C109.459 73.92 108.869 73.79 108.229 73.79C107.469 73.79 106.794 73.96 106.204 74.3C105.624 74.64 105.169 75.11 104.839 75.71C104.519 76.31 104.359 77 104.359 77.78C104.359 78.57 104.524 79.265 104.854 79.865C105.184 80.465 105.629 80.935 106.189 81.275C106.749 81.615 107.389 81.785 108.109 81.785C108.839 81.785 109.469 81.645 109.999 81.365C110.539 81.085 110.954 80.675 111.244 80.135C111.534 79.585 111.679 78.915 111.679 78.125L112.534 78.74H108.034V77.45H113.134V77.66C113.134 78.87 112.919 79.885 112.489 80.705C112.069 81.515 111.479 82.125 110.719 82.535C109.969 82.945 109.109 83.15 108.139 83.15ZM118.541 83.15C118.001 83.15 117.511 83.04 117.071 82.82C116.641 82.59 116.296 82.275 116.036 81.875C115.776 81.475 115.631 81.02 115.601 80.51V78.365C115.631 77.845 115.776 77.39 116.036 77C116.306 76.6 116.656 76.29 117.086 76.07C117.526 75.84 118.011 75.725 118.541 75.725C119.191 75.725 119.776 75.89 120.296 76.22C120.826 76.55 121.241 76.995 121.541 77.555C121.841 78.115 121.991 78.745 121.991 79.445C121.991 80.145 121.841 80.775 121.541 81.335C121.241 81.895 120.826 82.34 120.296 82.67C119.776 82.99 119.191 83.15 118.541 83.15ZM118.316 81.875C118.766 81.875 119.161 81.77 119.501 81.56C119.841 81.35 120.111 81.065 120.311 80.705C120.511 80.335 120.611 79.91 120.611 79.43C120.611 78.96 120.511 78.54 120.311 78.17C120.111 77.8 119.841 77.515 119.501 77.315C119.161 77.105 118.771 77 118.331 77C117.881 77 117.486 77.105 117.146 77.315C116.806 77.515 116.541 77.8 116.351 78.17C116.161 78.54 116.066 78.965 116.066 79.445C116.066 79.915 116.156 80.335 116.336 80.705C116.526 81.065 116.791 81.35 117.131 81.56C117.481 81.77 117.876 81.875 118.316 81.875ZM114.791 83V72.29H116.141V77.615L115.886 79.34L116.141 81.08V83H114.791ZM126.551 83.15C125.901 83.15 125.311 82.99 124.781 82.67C124.251 82.34 123.831 81.895 123.521 81.335C123.221 80.775 123.071 80.145 123.071 79.445C123.071 78.745 123.221 78.115 123.521 77.555C123.831 76.995 124.246 76.55 124.766 76.22C125.296 75.89 125.891 75.725 126.551 75.725C127.091 75.725 127.571 75.84 127.991 76.07C128.421 76.29 128.766 76.6 129.026 77C129.286 77.39 129.431 77.845 129.461 78.365V80.51C129.431 81.02 129.286 81.475 129.026 81.875C128.776 82.275 128.436 82.59 128.006 82.82C127.586 83.04 127.101 83.15 126.551 83.15ZM126.776 81.875C127.446 81.875 127.986 81.65 128.396 81.2C128.806 80.74 129.011 80.155 129.011 79.445C129.011 78.955 128.916 78.53 128.726 78.17C128.546 77.8 128.286 77.515 127.946 77.315C127.606 77.105 127.211 77 126.761 77C126.311 77 125.911 77.105 125.561 77.315C125.221 77.525 124.951 77.815 124.751 78.185C124.561 78.545 124.466 78.96 124.466 79.43C124.466 79.91 124.561 80.335 124.751 80.705C124.951 81.065 125.226 81.35 125.576 81.56C125.926 81.77 126.326 81.875 126.776 81.875ZM128.921 83V81.08L129.176 79.34L128.921 77.615V75.875H130.286V83H128.921ZM135.207 86.135C134.477 86.135 133.827 86 133.257 85.73C132.697 85.46 132.247 85.08 131.907 84.59L132.777 83.705C133.067 84.075 133.412 84.355 133.812 84.545C134.212 84.745 134.687 84.845 135.237 84.845C135.967 84.845 136.542 84.65 136.962 84.26C137.392 83.88 137.607 83.365 137.607 82.715V80.945L137.847 79.34L137.607 77.75V75.875H138.957V82.715C138.957 83.395 138.797 83.99 138.477 84.5C138.167 85.01 137.727 85.41 137.157 85.7C136.597 85.99 135.947 86.135 135.207 86.135ZM135.207 82.88C134.557 82.88 133.972 82.725 133.452 82.415C132.942 82.105 132.537 81.68 132.237 81.14C131.937 80.59 131.787 79.975 131.787 79.295C131.787 78.615 131.937 78.01 132.237 77.48C132.537 76.94 132.942 76.515 133.452 76.205C133.972 75.885 134.557 75.725 135.207 75.725C135.767 75.725 136.262 75.835 136.692 76.055C137.122 76.275 137.462 76.585 137.712 76.985C137.972 77.375 138.112 77.835 138.132 78.365V80.255C138.102 80.775 137.957 81.235 137.697 81.635C137.447 82.025 137.107 82.33 136.677 82.55C136.247 82.77 135.757 82.88 135.207 82.88ZM135.477 81.605C135.917 81.605 136.302 81.51 136.632 81.32C136.972 81.13 137.232 80.865 137.412 80.525C137.592 80.175 137.682 79.77 137.682 79.31C137.682 78.85 137.587 78.45 137.397 78.11C137.217 77.76 136.962 77.49 136.632 77.3C136.302 77.1 135.912 77 135.462 77C135.012 77 134.617 77.1 134.277 77.3C133.937 77.49 133.667 77.76 133.467 78.11C133.277 78.45 133.182 78.845 133.182 79.295C133.182 79.745 133.277 80.145 133.467 80.495C133.667 80.845 133.937 81.12 134.277 81.32C134.627 81.51 135.027 81.605 135.477 81.605ZM143.968 83.15C143.318 83.15 142.728 82.99 142.198 82.67C141.668 82.34 141.248 81.895 140.938 81.335C140.638 80.775 140.488 80.145 140.488 79.445C140.488 78.745 140.638 78.115 140.938 77.555C141.248 76.995 141.663 76.55 142.183 76.22C142.713 75.89 143.308 75.725 143.968 75.725C144.508 75.725 144.988 75.84 145.408 76.07C145.838 76.29 146.183 76.6 146.443 77C146.703 77.39 146.848 77.845 146.878 78.365V80.51C146.848 81.02 146.703 81.475 146.443 81.875C146.193 82.275 145.853 82.59 145.423 82.82C145.003 83.04 144.518 83.15 143.968 83.15ZM144.193 81.875C144.863 81.875 145.403 81.65 145.813 81.2C146.223 80.74 146.428 80.155 146.428 79.445C146.428 78.955 146.333 78.53 146.143 78.17C145.963 77.8 145.703 77.515 145.363 77.315C145.023 77.105 144.628 77 144.178 77C143.728 77 143.328 77.105 142.978 77.315C142.638 77.525 142.368 77.815 142.168 78.185C141.978 78.545 141.883 78.96 141.883 79.43C141.883 79.91 141.978 80.335 142.168 80.705C142.368 81.065 142.643 81.35 142.993 81.56C143.343 81.77 143.743 81.875 144.193 81.875ZM146.338 83V81.08L146.593 79.34L146.338 77.615V75.875H147.703V83H146.338ZM152.684 83.15C152.024 83.15 151.434 82.99 150.914 82.67C150.394 82.34 149.979 81.895 149.669 81.335C149.369 80.775 149.219 80.145 149.219 79.445C149.219 78.745 149.369 78.115 149.669 77.555C149.979 76.995 150.394 76.55 150.914 76.22C151.434 75.89 152.024 75.725 152.684 75.725C153.214 75.725 153.694 75.84 154.124 76.07C154.554 76.29 154.899 76.6 155.159 77C155.429 77.39 155.579 77.845 155.609 78.365V80.51C155.579 81.02 155.434 81.475 155.174 81.875C154.914 82.275 154.569 82.59 154.139 82.82C153.709 83.04 153.224 83.15 152.684 83.15ZM152.909 81.875C153.359 81.875 153.749 81.77 154.079 81.56C154.419 81.35 154.684 81.065 154.874 80.705C155.064 80.335 155.159 79.915 155.159 79.445C155.159 78.955 155.059 78.53 154.859 78.17C154.669 77.81 154.404 77.525 154.064 77.315C153.734 77.105 153.344 77 152.894 77C152.444 77 152.049 77.105 151.709 77.315C151.369 77.525 151.099 77.815 150.899 78.185C150.709 78.545 150.614 78.96 150.614 79.43C150.614 79.91 150.709 80.335 150.899 80.705C151.099 81.065 151.369 81.35 151.709 81.56C152.059 81.77 152.459 81.875 152.909 81.875ZM156.434 83H155.069V81.08L155.324 79.34L155.069 77.615V72.29H156.434V83ZM161.429 83.15C160.779 83.15 160.189 82.99 159.659 82.67C159.129 82.34 158.709 81.895 158.399 81.335C158.099 80.775 157.949 80.145 157.949 79.445C157.949 78.745 158.099 78.115 158.399 77.555C158.709 76.995 159.124 76.55 159.644 76.22C160.174 75.89 160.769 75.725 161.429 75.725C161.969 75.725 162.449 75.84 162.869 76.07C163.299 76.29 163.644 76.6 163.904 77C164.164 77.39 164.309 77.845 164.339 78.365V80.51C164.309 81.02 164.164 81.475 163.904 81.875C163.654 82.275 163.314 82.59 162.884 82.82C162.464 83.04 161.979 83.15 161.429 83.15ZM161.654 81.875C162.324 81.875 162.864 81.65 163.274 81.2C163.684 80.74 163.889 80.155 163.889 79.445C163.889 78.955 163.794 78.53 163.604 78.17C163.424 77.8 163.164 77.515 162.824 77.315C162.484 77.105 162.089 77 161.639 77C161.189 77 160.789 77.105 160.439 77.315C160.099 77.525 159.829 77.815 159.629 78.185C159.439 78.545 159.344 78.96 159.344 79.43C159.344 79.91 159.439 80.335 159.629 80.705C159.829 81.065 160.104 81.35 160.454 81.56C160.804 81.77 161.204 81.875 161.654 81.875ZM163.799 83V81.08L164.054 79.34L163.799 77.615V75.875H165.164V83H163.799Z" fill="#787878"/>
<path d="M403.408 53.346V51.792H405.69C405.989 51.792 406.259 51.7313 406.502 51.61C406.745 51.4887 406.936 51.316 407.076 51.092C407.216 50.8587 407.286 50.5787 407.286 50.252C407.286 49.9347 407.216 49.6593 407.076 49.426C406.936 49.1927 406.745 49.0153 406.502 48.894C406.259 48.7727 405.989 48.712 405.69 48.712H403.408V47.158H405.886C406.511 47.158 407.071 47.284 407.566 47.536C408.07 47.788 408.467 48.1473 408.756 48.614C409.045 49.0713 409.19 49.6173 409.19 50.252C409.19 50.8867 409.045 51.4373 408.756 51.904C408.467 52.3613 408.07 52.716 407.566 52.968C407.071 53.22 406.511 53.346 405.886 53.346H403.408ZM402.008 57V47.158H403.912V57H402.008ZM412.339 52.884V51.4H414.621C415.088 51.4 415.447 51.2833 415.699 51.05C415.961 50.8073 416.091 50.476 416.091 50.056C416.091 49.6733 415.961 49.356 415.699 49.104C415.447 48.8427 415.088 48.712 414.621 48.712H412.339V47.158H414.789C415.424 47.158 415.979 47.284 416.455 47.536C416.941 47.7787 417.314 48.1147 417.575 48.544C417.846 48.9733 417.981 49.468 417.981 50.028C417.981 50.6067 417.846 51.1107 417.575 51.54C417.314 51.96 416.941 52.2913 416.455 52.534C415.97 52.7673 415.405 52.884 414.761 52.884H412.339ZM410.939 57V47.158H412.843V57H410.939ZM416.315 57L413.067 52.744L414.817 52.198L418.625 57H416.315ZM424.627 57.154C423.908 57.154 423.236 57.0233 422.611 56.762C421.995 56.5007 421.454 56.1413 420.987 55.684C420.53 55.2173 420.17 54.676 419.909 54.06C419.648 53.4347 419.517 52.7673 419.517 52.058C419.517 51.3487 419.643 50.6907 419.895 50.084C420.156 49.468 420.516 48.9313 420.973 48.474C421.44 48.0073 421.981 47.648 422.597 47.396C423.213 47.1347 423.88 47.004 424.599 47.004C425.327 47.004 425.999 47.1347 426.615 47.396C427.231 47.648 427.768 48.0073 428.225 48.474C428.692 48.9313 429.056 49.468 429.317 50.084C429.578 50.7 429.709 51.3627 429.709 52.072C429.709 52.7813 429.578 53.444 429.317 54.06C429.056 54.676 428.692 55.2173 428.225 55.684C427.768 56.1413 427.231 56.5007 426.615 56.762C426.008 57.0233 425.346 57.154 424.627 57.154ZM424.599 55.376C425.234 55.376 425.784 55.236 426.251 54.956C426.718 54.676 427.082 54.2887 427.343 53.794C427.614 53.2993 427.749 52.7207 427.749 52.058C427.749 51.5727 427.674 51.1293 427.525 50.728C427.376 50.3267 427.161 49.9813 426.881 49.692C426.601 49.3933 426.27 49.1647 425.887 49.006C425.504 48.8473 425.075 48.768 424.599 48.768C423.983 48.768 423.437 48.908 422.961 49.188C422.494 49.4587 422.126 49.8413 421.855 50.336C421.594 50.8307 421.463 51.4047 421.463 52.058C421.463 52.5527 421.538 53.0053 421.687 53.416C421.846 53.8267 422.06 54.1767 422.331 54.466C422.611 54.7553 422.942 54.9793 423.325 55.138C423.717 55.2967 424.142 55.376 424.599 55.376ZM433.018 53.346V51.792H435.3C435.599 51.792 435.869 51.7313 436.112 51.61C436.355 51.4887 436.546 51.316 436.686 51.092C436.826 50.8587 436.896 50.5787 436.896 50.252C436.896 49.9347 436.826 49.6593 436.686 49.426C436.546 49.1927 436.355 49.0153 436.112 48.894C435.869 48.7727 435.599 48.712 435.3 48.712H433.018V47.158H435.496C436.121 47.158 436.681 47.284 437.176 47.536C437.68 47.788 438.077 48.1473 438.366 48.614C438.655 49.0713 438.8 49.6173 438.8 50.252C438.8 50.8867 438.655 51.4373 438.366 51.904C438.077 52.3613 437.68 52.716 437.176 52.968C436.681 53.22 436.121 53.346 435.496 53.346H433.018ZM431.618 57V47.158H433.522V57H431.618ZM440.549 57V47.158H442.453V57H440.549ZM441.949 57V55.32H447.395V57H441.949ZM441.949 52.786V51.162H446.905V52.786H441.949ZM441.949 48.838V47.158H447.325V48.838H441.949ZM450.771 52.884V51.4H453.053C453.52 51.4 453.879 51.2833 454.131 51.05C454.393 50.8073 454.523 50.476 454.523 50.056C454.523 49.6733 454.393 49.356 454.131 49.104C453.879 48.8427 453.52 48.712 453.053 48.712H450.771V47.158H453.221C453.856 47.158 454.411 47.284 454.887 47.536C455.373 47.7787 455.746 48.1147 456.007 48.544C456.278 48.9733 456.413 49.468 456.413 50.028C456.413 50.6067 456.278 51.1107 456.007 51.54C455.746 51.96 455.373 52.2913 454.887 52.534C454.402 52.7673 453.837 52.884 453.193 52.884H450.771ZM449.371 57V47.158H451.275V57H449.371ZM454.747 57L451.499 52.744L453.249 52.198L457.057 57H454.747ZM460.561 57V47.368H462.479V57H460.561ZM457.425 48.852V47.158H465.615V48.852H457.425ZM469.835 53.206L466.027 47.158H468.225L471.179 52.002H469.919L472.873 47.158H475.043L471.193 53.206H469.835ZM469.583 57V52.184H471.501V57H469.583Z" fill="#30343B"/>
<path d="M481.64 57V47.368H483.558V57H481.64ZM478.504 48.852V47.158H486.694V48.852H478.504ZM490.914 53.206L487.106 47.158H489.304L492.258 52.002H490.998L493.952 47.158H496.122L492.272 53.206H490.914ZM490.662 57V52.184H492.58V57H490.662ZM498.822 53.346V51.792H501.104C501.402 51.792 501.673 51.7313 501.916 51.61C502.158 51.4887 502.35 51.316 502.49 51.092C502.63 50.8587 502.7 50.5787 502.7 50.252C502.7 49.9347 502.63 49.6593 502.49 49.426C502.35 49.1927 502.158 49.0153 501.916 48.894C501.673 48.7727 501.402 48.712 501.104 48.712H498.822V47.158H501.3C501.925 47.158 502.485 47.284 502.98 47.536C503.484 47.788 503.88 48.1473 504.17 48.614C504.459 49.0713 504.604 49.6173 504.604 50.252C504.604 50.8867 504.459 51.4373 504.17 51.904C503.88 52.3613 503.484 52.716 502.98 52.968C502.485 53.22 501.925 53.346 501.3 53.346H498.822ZM497.422 57V47.158H499.326V57H497.422ZM506.353 57V47.158H508.257V57H506.353ZM507.753 57V55.32H513.199V57H507.753ZM507.753 52.786V51.162H512.709V52.786H507.753ZM507.753 48.838V47.158H513.129V48.838H507.753Z" fill="#353F50"/>
<path d="M382.29 83.15C381.58 83.15 380.94 82.99 380.37 82.67C379.8 82.34 379.35 81.895 379.02 81.335C378.69 80.775 378.525 80.14 378.525 79.43C378.525 78.73 378.685 78.1 379.005 77.54C379.335 76.98 379.775 76.54 380.325 76.22C380.885 75.89 381.51 75.725 382.2 75.725C382.86 75.725 383.44 75.875 383.94 76.175C384.45 76.475 384.845 76.89 385.125 77.42C385.415 77.95 385.56 78.55 385.56 79.22C385.56 79.32 385.555 79.43 385.545 79.55C385.535 79.66 385.515 79.79 385.485 79.94H379.47V78.815H384.765L384.27 79.25C384.27 78.77 384.185 78.365 384.015 78.035C383.845 77.695 383.605 77.435 383.295 77.255C382.985 77.065 382.61 76.97 382.17 76.97C381.71 76.97 381.305 77.07 380.955 77.27C380.605 77.47 380.335 77.75 380.145 78.11C379.955 78.47 379.86 78.895 379.86 79.385C379.86 79.885 379.96 80.325 380.16 80.705C380.36 81.075 380.645 81.365 381.015 81.575C381.385 81.775 381.81 81.875 382.29 81.875C382.69 81.875 383.055 81.805 383.385 81.665C383.725 81.525 384.015 81.315 384.255 81.035L385.125 81.92C384.785 82.32 384.365 82.625 383.865 82.835C383.375 83.045 382.85 83.15 382.29 83.15ZM389.987 86.135C389.257 86.135 388.607 86 388.037 85.73C387.477 85.46 387.027 85.08 386.687 84.59L387.557 83.705C387.847 84.075 388.192 84.355 388.592 84.545C388.992 84.745 389.467 84.845 390.017 84.845C390.747 84.845 391.322 84.65 391.742 84.26C392.172 83.88 392.387 83.365 392.387 82.715V80.945L392.627 79.34L392.387 77.75V75.875H393.737V82.715C393.737 83.395 393.577 83.99 393.257 84.5C392.947 85.01 392.507 85.41 391.937 85.7C391.377 85.99 390.727 86.135 389.987 86.135ZM389.987 82.88C389.337 82.88 388.752 82.725 388.232 82.415C387.722 82.105 387.317 81.68 387.017 81.14C386.717 80.59 386.567 79.975 386.567 79.295C386.567 78.615 386.717 78.01 387.017 77.48C387.317 76.94 387.722 76.515 388.232 76.205C388.752 75.885 389.337 75.725 389.987 75.725C390.547 75.725 391.042 75.835 391.472 76.055C391.902 76.275 392.242 76.585 392.492 76.985C392.752 77.375 392.892 77.835 392.912 78.365V80.255C392.882 80.775 392.737 81.235 392.477 81.635C392.227 82.025 391.887 82.33 391.457 82.55C391.027 82.77 390.537 82.88 389.987 82.88ZM390.257 81.605C390.697 81.605 391.082 81.51 391.412 81.32C391.752 81.13 392.012 80.865 392.192 80.525C392.372 80.175 392.462 79.77 392.462 79.31C392.462 78.85 392.367 78.45 392.177 78.11C391.997 77.76 391.742 77.49 391.412 77.3C391.082 77.1 390.692 77 390.242 77C389.792 77 389.397 77.1 389.057 77.3C388.717 77.49 388.447 77.76 388.247 78.11C388.057 78.45 387.962 78.845 387.962 79.295C387.962 79.745 388.057 80.145 388.247 80.495C388.447 80.845 388.717 81.12 389.057 81.32C389.407 81.51 389.807 81.605 390.257 81.605ZM396.904 83.15C396.624 83.15 396.389 83.055 396.199 82.865C396.019 82.665 395.929 82.43 395.929 82.16C395.929 81.88 396.019 81.65 396.199 81.47C396.389 81.28 396.624 81.185 396.904 81.185C397.184 81.185 397.414 81.28 397.594 81.47C397.784 81.65 397.879 81.88 397.879 82.16C397.879 82.43 397.784 82.665 397.594 82.865C397.414 83.055 397.184 83.15 396.904 83.15ZM404.359 83V81.71H407.254C408.024 81.71 408.699 81.545 409.279 81.215C409.859 80.875 410.309 80.41 410.629 79.82C410.959 79.23 411.124 78.55 411.124 77.78C411.124 77.02 410.959 76.345 410.629 75.755C410.299 75.165 409.844 74.705 409.264 74.375C408.684 74.045 408.014 73.88 407.254 73.88H404.374V72.59H407.284C408.044 72.59 408.744 72.72 409.384 72.98C410.034 73.24 410.594 73.605 411.064 74.075C411.544 74.545 411.914 75.095 412.174 75.725C412.444 76.355 412.579 77.045 412.579 77.795C412.579 78.535 412.444 79.225 412.174 79.865C411.914 80.495 411.549 81.045 411.079 81.515C410.609 81.985 410.049 82.35 409.399 82.61C408.759 82.87 408.064 83 407.314 83H404.359ZM403.429 83V72.59H404.839V83H403.429ZM417.158 83.15C416.578 83.15 416.053 83.02 415.583 82.76C415.123 82.49 414.763 82.12 414.503 81.65C414.243 81.18 414.113 80.635 414.113 80.015V75.875H415.463V79.955C415.463 80.345 415.528 80.685 415.658 80.975C415.798 81.255 415.998 81.47 416.258 81.62C416.518 81.77 416.823 81.845 417.173 81.845C417.703 81.845 418.118 81.68 418.418 81.35C418.718 81.01 418.868 80.545 418.868 79.955V75.875H420.218V80.015C420.218 80.635 420.088 81.18 419.828 81.65C419.568 82.12 419.208 82.49 418.748 82.76C418.298 83.02 417.768 83.15 417.158 83.15ZM425.777 83.15C425.237 83.15 424.747 83.04 424.307 82.82C423.877 82.59 423.532 82.275 423.272 81.875C423.012 81.475 422.867 81.02 422.837 80.51V78.365C422.867 77.845 423.012 77.39 423.272 77C423.542 76.6 423.892 76.29 424.322 76.07C424.762 75.84 425.247 75.725 425.777 75.725C426.427 75.725 427.012 75.89 427.532 76.22C428.062 76.55 428.477 76.995 428.777 77.555C429.077 78.115 429.227 78.745 429.227 79.445C429.227 80.145 429.077 80.775 428.777 81.335C428.477 81.895 428.062 82.34 427.532 82.67C427.012 82.99 426.427 83.15 425.777 83.15ZM425.552 81.875C426.002 81.875 426.397 81.77 426.737 81.56C427.077 81.35 427.347 81.065 427.547 80.705C427.747 80.335 427.847 79.91 427.847 79.43C427.847 78.96 427.747 78.54 427.547 78.17C427.347 77.8 427.077 77.515 426.737 77.315C426.397 77.105 426.007 77 425.567 77C425.117 77 424.722 77.105 424.382 77.315C424.042 77.515 423.777 77.8 423.587 78.17C423.397 78.54 423.302 78.965 423.302 79.445C423.302 79.915 423.392 80.335 423.572 80.705C423.762 81.065 424.027 81.35 424.367 81.56C424.717 81.77 425.112 81.875 425.552 81.875ZM422.027 85.985V75.875H423.377V77.75L423.122 79.475L423.377 81.215V85.985H422.027ZM430.758 83V72.29H432.108V83H430.758ZM437.383 83.15C436.673 83.15 436.033 82.99 435.463 82.67C434.893 82.34 434.443 81.895 434.113 81.335C433.783 80.775 433.618 80.14 433.618 79.43C433.618 78.73 433.778 78.1 434.098 77.54C434.428 76.98 434.868 76.54 435.418 76.22C435.978 75.89 436.603 75.725 437.293 75.725C437.953 75.725 438.533 75.875 439.033 76.175C439.543 76.475 439.938 76.89 440.218 77.42C440.508 77.95 440.653 78.55 440.653 79.22C440.653 79.32 440.648 79.43 440.638 79.55C440.628 79.66 440.608 79.79 440.578 79.94H434.563V78.815H439.858L439.363 79.25C439.363 78.77 439.278 78.365 439.108 78.035C438.938 77.695 438.698 77.435 438.388 77.255C438.078 77.065 437.703 76.97 437.263 76.97C436.803 76.97 436.398 77.07 436.048 77.27C435.698 77.47 435.428 77.75 435.238 78.11C435.048 78.47 434.953 78.895 434.953 79.385C434.953 79.885 435.053 80.325 435.253 80.705C435.453 81.075 435.738 81.365 436.108 81.575C436.478 81.775 436.903 81.875 437.383 81.875C437.783 81.875 438.148 81.805 438.478 81.665C438.818 81.525 439.108 81.315 439.348 81.035L440.218 81.92C439.878 82.32 439.458 82.625 438.958 82.835C438.468 83.045 437.943 83.15 437.383 83.15ZM446.585 83L444.365 79.88L444.11 79.64L441.305 75.875H442.94L444.965 78.65L445.22 78.86L448.22 83H446.585ZM441.17 83L444.11 79.04L444.875 80.03L442.76 83H441.17ZM445.325 79.625L444.545 78.665L446.51 75.875H448.085L445.325 79.625ZM449.539 84.65L450.469 82.865L450.949 82.745C450.899 82.855 450.834 82.945 450.754 83.015C450.684 83.085 450.594 83.12 450.484 83.12C450.274 83.12 450.079 83.035 449.899 82.865C449.729 82.685 449.644 82.465 449.644 82.205C449.644 81.915 449.739 81.675 449.929 81.485C450.119 81.285 450.359 81.185 450.649 81.185C450.909 81.185 451.139 81.285 451.339 81.485C451.539 81.675 451.639 81.915 451.639 82.205C451.639 82.315 451.614 82.45 451.564 82.61C451.524 82.76 451.439 82.955 451.309 83.195L450.319 85.07L449.539 84.65ZM457.9 83V81.77H461.05C461.65 81.77 462.12 81.595 462.46 81.245C462.8 80.885 462.97 80.455 462.97 79.955C462.97 79.615 462.895 79.31 462.745 79.04C462.595 78.76 462.375 78.54 462.085 78.38C461.805 78.22 461.475 78.14 461.095 78.14H457.9V76.91H460.885C461.385 76.91 461.78 76.78 462.07 76.52C462.37 76.25 462.52 75.865 462.52 75.365C462.52 74.865 462.365 74.485 462.055 74.225C461.745 73.955 461.335 73.82 460.825 73.82H457.9V72.59H460.855C461.535 72.59 462.1 72.715 462.55 72.965C463.01 73.205 463.355 73.525 463.585 73.925C463.825 74.325 463.945 74.765 463.945 75.245C463.945 75.805 463.79 76.295 463.48 76.715C463.18 77.135 462.735 77.465 462.145 77.705L462.265 77.255C462.935 77.495 463.455 77.86 463.825 78.35C464.205 78.83 464.395 79.4 464.395 80.06C464.395 80.61 464.26 81.105 463.99 81.545C463.72 81.985 463.33 82.34 462.82 82.61C462.32 82.87 461.705 83 460.975 83H457.9ZM456.955 83V72.59H458.365V83H456.955ZM469.36 83.15C468.65 83.15 468.01 82.99 467.44 82.67C466.87 82.34 466.42 81.895 466.09 81.335C465.76 80.775 465.595 80.14 465.595 79.43C465.595 78.73 465.755 78.1 466.075 77.54C466.405 76.98 466.845 76.54 467.395 76.22C467.955 75.89 468.58 75.725 469.27 75.725C469.93 75.725 470.51 75.875 471.01 76.175C471.52 76.475 471.915 76.89 472.195 77.42C472.485 77.95 472.63 78.55 472.63 79.22C472.63 79.32 472.625 79.43 472.615 79.55C472.605 79.66 472.585 79.79 472.555 79.94H466.54V78.815H471.835L471.34 79.25C471.34 78.77 471.255 78.365 471.085 78.035C470.915 77.695 470.675 77.435 470.365 77.255C470.055 77.065 469.68 76.97 469.24 76.97C468.78 76.97 468.375 77.07 468.025 77.27C467.675 77.47 467.405 77.75 467.215 78.11C467.025 78.47 466.93 78.895 466.93 79.385C466.93 79.885 467.03 80.325 467.23 80.705C467.43 81.075 467.715 81.365 468.085 81.575C468.455 81.775 468.88 81.875 469.36 81.875C469.76 81.875 470.125 81.805 470.455 81.665C470.795 81.525 471.085 81.315 471.325 81.035L472.195 81.92C471.855 82.32 471.435 82.625 470.935 82.835C470.445 83.045 469.92 83.15 469.36 83.15ZM477.117 83.15C476.457 83.15 475.867 82.99 475.347 82.67C474.827 82.34 474.412 81.895 474.102 81.335C473.802 80.775 473.652 80.145 473.652 79.445C473.652 78.745 473.802 78.115 474.102 77.555C474.412 76.995 474.827 76.55 475.347 76.22C475.867 75.89 476.457 75.725 477.117 75.725C477.647 75.725 478.127 75.84 478.557 76.07C478.987 76.29 479.332 76.6 479.592 77C479.862 77.39 480.012 77.845 480.042 78.365V80.51C480.012 81.02 479.867 81.475 479.607 81.875C479.347 82.275 479.002 82.59 478.572 82.82C478.142 83.04 477.657 83.15 477.117 83.15ZM477.342 81.875C477.792 81.875 478.182 81.77 478.512 81.56C478.852 81.35 479.117 81.065 479.307 80.705C479.497 80.335 479.592 79.915 479.592 79.445C479.592 78.955 479.492 78.53 479.292 78.17C479.102 77.81 478.837 77.525 478.497 77.315C478.167 77.105 477.777 77 477.327 77C476.877 77 476.482 77.105 476.142 77.315C475.802 77.525 475.532 77.815 475.332 78.185C475.142 78.545 475.047 78.96 475.047 79.43C475.047 79.91 475.142 80.335 475.332 80.705C475.532 81.065 475.802 81.35 476.142 81.56C476.492 81.77 476.892 81.875 477.342 81.875ZM480.867 83H479.502V81.08L479.757 79.34L479.502 77.615V72.29H480.867V83ZM482.833 83V75.875H484.183V83H482.833ZM484.183 78.935L483.673 78.71C483.673 77.8 483.883 77.075 484.303 76.535C484.723 75.995 485.328 75.725 486.118 75.725C486.478 75.725 486.803 75.79 487.093 75.92C487.383 76.04 487.653 76.245 487.903 76.535L487.018 77.45C486.868 77.29 486.703 77.175 486.523 77.105C486.343 77.035 486.133 77 485.893 77C485.393 77 484.983 77.16 484.663 77.48C484.343 77.8 484.183 78.285 484.183 78.935ZM491.874 83.15C491.174 83.15 490.544 82.985 489.984 82.655C489.424 82.325 488.979 81.88 488.649 81.32C488.319 80.75 488.154 80.115 488.154 79.415C488.154 78.725 488.319 78.105 488.649 77.555C488.979 76.995 489.424 76.55 489.984 76.22C490.544 75.89 491.174 75.725 491.874 75.725C492.564 75.725 493.189 75.89 493.749 76.22C494.319 76.54 494.769 76.98 495.099 77.54C495.429 78.1 495.594 78.725 495.594 79.415C495.594 80.115 495.429 80.75 495.099 81.32C494.769 81.88 494.319 82.325 493.749 82.655C493.189 82.985 492.564 83.15 491.874 83.15ZM491.874 81.845C492.324 81.845 492.724 81.74 493.074 81.53C493.424 81.32 493.699 81.035 493.899 80.675C494.099 80.305 494.199 79.885 494.199 79.415C494.199 78.955 494.094 78.545 493.884 78.185C493.684 77.825 493.409 77.545 493.059 77.345C492.719 77.135 492.324 77.03 491.874 77.03C491.424 77.03 491.024 77.135 490.674 77.345C490.324 77.545 490.049 77.825 489.849 78.185C489.649 78.545 489.549 78.955 489.549 79.415C489.549 79.885 489.649 80.305 489.849 80.675C490.049 81.035 490.324 81.32 490.674 81.53C491.024 81.74 491.424 81.845 491.874 81.845ZM500.37 83.15C499.67 83.15 499.04 82.985 498.48 82.655C497.92 82.325 497.475 81.88 497.145 81.32C496.815 80.75 496.65 80.115 496.65 79.415C496.65 78.725 496.815 78.105 497.145 77.555C497.475 76.995 497.92 76.55 498.48 76.22C499.04 75.89 499.67 75.725 500.37 75.725C501.06 75.725 501.685 75.89 502.245 76.22C502.815 76.54 503.265 76.98 503.595 77.54C503.925 78.1 504.09 78.725 504.09 79.415C504.09 80.115 503.925 80.75 503.595 81.32C503.265 81.88 502.815 82.325 502.245 82.655C501.685 82.985 501.06 83.15 500.37 83.15ZM500.37 81.845C500.82 81.845 501.22 81.74 501.57 81.53C501.92 81.32 502.195 81.035 502.395 80.675C502.595 80.305 502.695 79.885 502.695 79.415C502.695 78.955 502.59 78.545 502.38 78.185C502.18 77.825 501.905 77.545 501.555 77.345C501.215 77.135 500.82 77.03 500.37 77.03C499.92 77.03 499.52 77.135 499.17 77.345C498.82 77.545 498.545 77.825 498.345 78.185C498.145 78.545 498.045 78.955 498.045 79.415C498.045 79.885 498.145 80.305 498.345 80.675C498.545 81.035 498.82 81.32 499.17 81.53C499.52 81.74 499.92 81.845 500.37 81.845ZM505.611 83V75.875H506.961V83H505.611ZM510.426 83V78.695C510.426 78.165 510.261 77.75 509.931 77.45C509.611 77.14 509.206 76.985 508.716 76.985C508.386 76.985 508.091 77.055 507.831 77.195C507.571 77.335 507.361 77.53 507.201 77.78C507.041 78.03 506.961 78.33 506.961 78.68L506.406 78.41C506.406 77.87 506.521 77.4 506.751 77C506.991 76.6 507.316 76.29 507.726 76.07C508.136 75.84 508.596 75.725 509.106 75.725C509.606 75.725 510.056 75.835 510.456 76.055C510.866 76.275 511.186 76.585 511.416 76.985C511.656 77.385 511.776 77.86 511.776 78.41V83H510.426ZM515.241 83V78.695C515.241 78.165 515.076 77.75 514.746 77.45C514.426 77.14 514.026 76.985 513.546 76.985C513.216 76.985 512.916 77.055 512.646 77.195C512.386 77.335 512.176 77.53 512.016 77.78C511.856 78.03 511.776 78.33 511.776 78.68L511.011 78.41C511.041 77.86 511.186 77.39 511.446 77C511.716 76.6 512.061 76.29 512.481 76.07C512.901 75.84 513.361 75.725 513.861 75.725C514.381 75.725 514.846 75.835 515.256 76.055C515.666 76.275 515.991 76.585 516.231 76.985C516.481 77.385 516.606 77.865 516.606 78.425V83H515.241ZM521.803 83V72.59H523.213V83H521.803ZM522.763 78.425V77.135H528.193V78.425H522.763ZM522.763 73.88V72.59H528.448V73.88H522.763ZM530.059 83V72.29H531.409V83H530.059ZM536.415 83.15C535.765 83.15 535.175 82.99 534.645 82.67C534.115 82.34 533.695 81.895 533.385 81.335C533.085 80.775 532.935 80.145 532.935 79.445C532.935 78.745 533.085 78.115 533.385 77.555C533.695 76.995 534.11 76.55 534.63 76.22C535.16 75.89 535.755 75.725 536.415 75.725C536.955 75.725 537.435 75.84 537.855 76.07C538.285 76.29 538.63 76.6 538.89 77C539.15 77.39 539.295 77.845 539.325 78.365V80.51C539.295 81.02 539.15 81.475 538.89 81.875C538.64 82.275 538.3 82.59 537.87 82.82C537.45 83.04 536.965 83.15 536.415 83.15ZM536.64 81.875C537.31 81.875 537.85 81.65 538.26 81.2C538.67 80.74 538.875 80.155 538.875 79.445C538.875 78.955 538.78 78.53 538.59 78.17C538.41 77.8 538.15 77.515 537.81 77.315C537.47 77.105 537.075 77 536.625 77C536.175 77 535.775 77.105 535.425 77.315C535.085 77.525 534.815 77.815 534.615 78.185C534.425 78.545 534.33 78.96 534.33 79.43C534.33 79.91 534.425 80.335 534.615 80.705C534.815 81.065 535.09 81.35 535.44 81.56C535.79 81.77 536.19 81.875 536.64 81.875ZM538.785 83V81.08L539.04 79.34L538.785 77.615V75.875H540.15V83H538.785ZM543.181 83V72.89H544.531V83H543.181ZM541.426 77.105V75.875H546.286V77.105H541.426Z" fill="#787878"/>
<line x1="312.5" y1="42" x2="312.5" y2="88" stroke="#CAD4DE"/>
<line x1="610.5" y1="42" x2="610.5" y2="88" stroke="#CAD4DE"/>
<path d="M735.408 54V52.446H737.97C738.427 52.446 738.782 52.306 739.034 52.026C739.295 51.746 739.426 51.4147 739.426 51.032C739.426 50.7707 739.37 50.5327 739.258 50.318C739.146 50.1033 738.978 49.9353 738.754 49.814C738.539 49.6833 738.278 49.618 737.97 49.618H735.408V48.078H737.76C738.152 48.078 738.465 47.98 738.698 47.784C738.941 47.588 739.062 47.294 739.062 46.902C739.062 46.5007 738.941 46.202 738.698 46.006C738.465 45.81 738.152 45.712 737.76 45.712H735.408V44.158H737.984C738.637 44.158 739.183 44.2793 739.622 44.522C740.07 44.7553 740.406 45.068 740.63 45.46C740.854 45.8427 740.966 46.2627 740.966 46.72C740.966 47.28 740.793 47.7653 740.448 48.176C740.112 48.5773 739.617 48.876 738.964 49.072L739.048 48.456C739.776 48.6613 740.336 49.002 740.728 49.478C741.129 49.9447 741.33 50.5093 741.33 51.172C741.33 51.6947 741.199 52.1707 740.938 52.6C740.686 53.02 740.313 53.3607 739.818 53.622C739.333 53.874 738.74 54 738.04 54H735.408ZM734.008 54V44.158H735.898V54H734.008ZM743.24 54V44.158H745.144V54H743.24ZM744.64 54V52.32H750.086V54H744.64ZM744.64 49.786V48.162H749.596V49.786H744.64ZM744.64 45.838V44.158H750.016V45.838H744.64ZM753.364 54V52.306H755.87C756.505 52.306 757.06 52.1753 757.536 51.914C758.012 51.6433 758.381 51.2653 758.642 50.78C758.913 50.2947 759.048 49.7207 759.048 49.058C759.048 48.414 758.913 47.854 758.642 47.378C758.371 46.8927 757.998 46.5193 757.522 46.258C757.046 45.9873 756.495 45.852 755.87 45.852H753.322V44.158H755.898C756.626 44.158 757.298 44.2793 757.914 44.522C758.539 44.7647 759.081 45.11 759.538 45.558C760.005 45.9967 760.364 46.5147 760.616 47.112C760.877 47.7093 761.008 48.3627 761.008 49.072C761.008 49.7813 760.877 50.4393 760.616 51.046C760.364 51.6433 760.009 52.166 759.552 52.614C759.095 53.0527 758.553 53.3933 757.928 53.636C757.312 53.8787 756.645 54 755.926 54H753.364ZM752.062 54V44.158H753.966V54H752.062ZM764.321 49.884V48.4H766.603C767.07 48.4 767.429 48.2833 767.681 48.05C767.942 47.8073 768.073 47.476 768.073 47.056C768.073 46.6733 767.942 46.356 767.681 46.104C767.429 45.8427 767.07 45.712 766.603 45.712H764.321V44.158H766.771C767.406 44.158 767.961 44.284 768.437 44.536C768.922 44.7787 769.296 45.1147 769.557 45.544C769.828 45.9733 769.963 46.468 769.963 47.028C769.963 47.6067 769.828 48.1107 769.557 48.54C769.296 48.96 768.922 49.2913 768.437 49.534C767.952 49.7673 767.387 49.884 766.743 49.884H764.321ZM762.921 54V44.158H764.825V54H762.921ZM768.297 54L765.049 49.744L766.799 49.198L770.607 54H768.297ZM776.609 54.154C775.89 54.154 775.218 54.0233 774.593 53.762C773.977 53.5007 773.435 53.1413 772.969 52.684C772.511 52.2173 772.152 51.676 771.891 51.06C771.629 50.4347 771.499 49.7673 771.499 49.058C771.499 48.3487 771.625 47.6907 771.877 47.084C772.138 46.468 772.497 45.9313 772.955 45.474C773.421 45.0073 773.963 44.648 774.579 44.396C775.195 44.1347 775.862 44.004 776.581 44.004C777.309 44.004 777.981 44.1347 778.597 44.396C779.213 44.648 779.749 45.0073 780.207 45.474C780.673 45.9313 781.037 46.468 781.299 47.084C781.56 47.7 781.691 48.3627 781.691 49.072C781.691 49.7813 781.56 50.444 781.299 51.06C781.037 51.676 780.673 52.2173 780.207 52.684C779.749 53.1413 779.213 53.5007 778.597 53.762C777.99 54.0233 777.327 54.154 776.609 54.154ZM776.581 52.376C777.215 52.376 777.766 52.236 778.233 51.956C778.699 51.676 779.063 51.2887 779.325 50.794C779.595 50.2993 779.731 49.7207 779.731 49.058C779.731 48.5727 779.656 48.1293 779.507 47.728C779.357 47.3267 779.143 46.9813 778.863 46.692C778.583 46.3933 778.251 46.1647 777.869 46.006C777.486 45.8473 777.057 45.768 776.581 45.768C775.965 45.768 775.419 45.908 774.943 46.188C774.476 46.4587 774.107 46.8413 773.837 47.336C773.575 47.8307 773.445 48.4047 773.445 49.058C773.445 49.5527 773.519 50.0053 773.669 50.416C773.827 50.8267 774.042 51.1767 774.313 51.466C774.593 51.7553 774.924 51.9793 775.307 52.138C775.699 52.2967 776.123 52.376 776.581 52.376ZM788.329 54.154C787.61 54.154 786.938 54.0233 786.313 53.762C785.697 53.5007 785.156 53.1413 784.689 52.684C784.232 52.2173 783.872 51.676 783.611 51.06C783.35 50.4347 783.219 49.7673 783.219 49.058C783.219 48.3487 783.345 47.6907 783.597 47.084C783.858 46.468 784.218 45.9313 784.675 45.474C785.142 45.0073 785.683 44.648 786.299 44.396C786.915 44.1347 787.582 44.004 788.301 44.004C789.029 44.004 789.701 44.1347 790.317 44.396C790.933 44.648 791.47 45.0073 791.927 45.474C792.394 45.9313 792.758 46.468 793.019 47.084C793.28 47.7 793.411 48.3627 793.411 49.072C793.411 49.7813 793.28 50.444 793.019 51.06C792.758 51.676 792.394 52.2173 791.927 52.684C791.47 53.1413 790.933 53.5007 790.317 53.762C789.71 54.0233 789.048 54.154 788.329 54.154ZM788.301 52.376C788.936 52.376 789.486 52.236 789.953 51.956C790.42 51.676 790.784 51.2887 791.045 50.794C791.316 50.2993 791.451 49.7207 791.451 49.058C791.451 48.5727 791.376 48.1293 791.227 47.728C791.078 47.3267 790.863 46.9813 790.583 46.692C790.303 46.3933 789.972 46.1647 789.589 46.006C789.206 45.8473 788.777 45.768 788.301 45.768C787.685 45.768 787.139 45.908 786.663 46.188C786.196 46.4587 785.828 46.8413 785.557 47.336C785.296 47.8307 785.165 48.4047 785.165 49.058C785.165 49.5527 785.24 50.0053 785.389 50.416C785.548 50.8267 785.762 51.1767 786.033 51.466C786.313 51.7553 786.644 51.9793 787.027 52.138C787.419 52.2967 787.844 52.376 788.301 52.376ZM795.32 54V44.158H796.664L800.654 50.542H799.884L803.86 44.158H805.204V54H803.314V47.42L803.678 47.532L800.906 51.984H799.618L796.846 47.532L797.224 47.42V54H795.32Z" fill="#30343B"/>
<rect x="718.5" y="66.5" width="20" height="20" rx="10" stroke="#30343B"/>
<path d="M731.079 76.5881V77.6818H726.624V76.5881H731.079Z" fill="#30343B"/>
<path d="M769.95 81.15C769.17 81.15 768.455 80.93 767.805 80.49C767.165 80.05 766.655 79.43 766.275 78.63C765.895 77.82 765.705 76.87 765.705 75.78C765.705 74.69 765.89 73.745 766.26 72.945C766.64 72.145 767.15 71.53 767.79 71.1C768.43 70.66 769.135 70.44 769.905 70.44C770.695 70.44 771.41 70.66 772.05 71.1C772.69 71.53 773.195 72.145 773.565 72.945C773.945 73.745 774.135 74.695 774.135 75.795C774.135 76.885 773.945 77.835 773.565 78.645C773.195 79.445 772.69 80.065 772.05 80.505C771.42 80.935 770.72 81.15 769.95 81.15ZM769.92 79.815C770.47 79.815 770.95 79.665 771.36 79.365C771.78 79.055 772.11 78.6 772.35 78C772.59 77.4 772.71 76.66 772.71 75.78C772.71 74.9 772.59 74.165 772.35 73.575C772.11 72.975 771.78 72.525 771.36 72.225C770.94 71.915 770.455 71.76 769.905 71.76C769.365 71.76 768.885 71.915 768.465 72.225C768.045 72.525 767.715 72.975 767.475 73.575C767.245 74.165 767.13 74.9 767.13 75.78C767.13 76.66 767.245 77.4 767.475 78C767.715 78.6 768.045 79.055 768.465 79.365C768.885 79.665 769.37 79.815 769.92 79.815Z" fill="#787878"/>
<rect x="801.5" y="66.5" width="20" height="20" rx="10" stroke="#30343B"/>
<path d="M811.477 80.804V74.2415H812.59V80.804H811.477ZM808.752 78.0795V76.9659H815.315V78.0795H808.752Z" fill="#30343B"/>
<path d="M917.802 22.2334H1205.19C1210.71 22.2334 1215.19 26.7106 1215.19 32.2334V98C1215.19 103.523 1210.71 108 1205.19 108H917.802V22.2334Z" fill="#3D9970"/>
<path d="M1008.93 73V59H1011.23V73H1008.93ZM1010.51 67V64.9H1017.63V67H1010.51ZM1010.51 61.1V59H1017.97V61.1H1010.51ZM1019.98 73V63.4H1022.18V73H1019.98ZM1021.08 61.64C1020.7 61.64 1020.39 61.5133 1020.14 61.26C1019.9 61.0067 1019.78 60.6933 1019.78 60.32C1019.78 59.9467 1019.9 59.6333 1020.14 59.38C1020.39 59.1267 1020.7 59 1021.08 59C1021.46 59 1021.78 59.1267 1022.02 59.38C1022.26 59.6333 1022.38 59.9467 1022.38 60.32C1022.38 60.6933 1022.26 61.0067 1022.02 61.26C1021.78 61.5133 1021.46 61.64 1021.08 61.64ZM1031.22 73V67.46C1031.22 66.82 1031.02 66.2933 1030.6 65.88C1030.2 65.4667 1029.68 65.26 1029.04 65.26C1028.62 65.26 1028.24 65.3533 1027.9 65.54C1027.57 65.7267 1027.31 65.9867 1027.12 66.32C1026.94 66.6533 1026.84 67.0333 1026.84 67.46L1025.98 66.98C1025.98 66.2467 1026.14 65.6 1026.46 65.04C1026.78 64.4667 1027.22 64.02 1027.78 63.7C1028.36 63.3667 1029 63.2 1029.7 63.2C1030.42 63.2 1031.06 63.3867 1031.62 63.76C1032.18 64.12 1032.62 64.5933 1032.94 65.18C1033.26 65.7533 1033.42 66.3533 1033.42 66.98V73H1031.22ZM1024.64 73V63.4H1026.84V73H1024.64ZM1039.68 73.2C1038.81 73.2 1038.03 72.98 1037.32 72.54C1036.63 72.1 1036.07 71.5067 1035.66 70.76C1035.26 70 1035.06 69.1533 1035.06 68.22C1035.06 67.2733 1035.26 66.4267 1035.66 65.68C1036.07 64.92 1036.63 64.32 1037.32 63.88C1038.03 63.4267 1038.81 63.2 1039.68 63.2C1040.41 63.2 1041.06 63.36 1041.62 63.68C1042.19 63.9867 1042.65 64.4133 1042.98 64.96C1043.31 65.5067 1043.48 66.1267 1043.48 66.82V69.58C1043.48 70.2733 1043.31 70.8933 1042.98 71.44C1042.66 71.9867 1042.21 72.42 1041.64 72.74C1041.07 73.0467 1040.41 73.2 1039.68 73.2ZM1040.04 71.12C1040.59 71.12 1041.06 71 1041.46 70.76C1041.87 70.5067 1042.19 70.16 1042.42 69.72C1042.65 69.28 1042.76 68.7733 1042.76 68.2C1042.76 67.6267 1042.65 67.12 1042.42 66.68C1042.19 66.24 1041.87 65.9 1041.46 65.66C1041.06 65.4067 1040.59 65.28 1040.04 65.28C1039.51 65.28 1039.03 65.4067 1038.62 65.66C1038.22 65.9 1037.9 66.24 1037.66 66.68C1037.43 67.12 1037.32 67.6267 1037.32 68.2C1037.32 68.7733 1037.43 69.28 1037.66 69.72C1037.9 70.16 1038.22 70.5067 1038.62 70.76C1039.03 71 1039.51 71.12 1040.04 71.12ZM1044.82 73H1042.62V70.42L1043 68.08L1042.62 65.76V58.6H1044.82V73ZM1053.14 67.72V65.72H1056.64C1057.12 65.72 1057.54 65.6267 1057.9 65.44C1058.28 65.24 1058.57 64.9667 1058.78 64.62C1059 64.26 1059.1 63.84 1059.1 63.36C1059.1 62.88 1059 62.4667 1058.78 62.12C1058.57 61.76 1058.28 61.4867 1057.9 61.3C1057.54 61.1 1057.12 61 1056.64 61H1053.14V59H1056.76C1057.64 59 1058.43 59.18 1059.12 59.54C1059.83 59.9 1060.38 60.4067 1060.78 61.06C1061.2 61.7133 1061.4 62.48 1061.4 63.36C1061.4 64.24 1061.2 65.0067 1060.78 65.66C1060.38 66.3133 1059.83 66.82 1059.12 67.18C1058.43 67.54 1057.64 67.72 1056.76 67.72H1053.14ZM1051.56 73V59H1053.86V73H1051.56ZM1063.34 73V63.4H1065.54V73H1063.34ZM1065.54 67.66L1064.78 67.28C1064.78 66.0667 1065.04 65.0867 1065.58 64.34C1066.12 63.58 1066.94 63.2 1068.04 63.2C1068.52 63.2 1068.95 63.2867 1069.34 63.46C1069.72 63.6333 1070.08 63.9133 1070.42 64.3L1068.98 65.78C1068.8 65.5933 1068.61 65.46 1068.4 65.38C1068.18 65.3 1067.94 65.26 1067.66 65.26C1067.04 65.26 1066.54 65.4533 1066.14 65.84C1065.74 66.2267 1065.54 66.8333 1065.54 67.66ZM1075.59 73.2C1074.65 73.2 1073.81 72.98 1073.05 72.54C1072.29 72.0867 1071.68 71.48 1071.23 70.72C1070.79 69.96 1070.57 69.1133 1070.57 68.18C1070.57 67.2467 1070.79 66.4067 1071.23 65.66C1071.68 64.9133 1072.29 64.32 1073.05 63.88C1073.81 63.4267 1074.65 63.2 1075.59 63.2C1076.53 63.2 1077.39 63.42 1078.15 63.86C1078.91 64.3 1079.51 64.9 1079.95 65.66C1080.4 66.4067 1080.63 67.2467 1080.63 68.18C1080.63 69.1133 1080.4 69.96 1079.95 70.72C1079.51 71.48 1078.91 72.0867 1078.15 72.54C1077.39 72.98 1076.53 73.2 1075.59 73.2ZM1075.59 71.08C1076.13 71.08 1076.61 70.96 1077.03 70.72C1077.45 70.4667 1077.78 70.12 1078.01 69.68C1078.25 69.24 1078.37 68.74 1078.37 68.18C1078.37 67.62 1078.25 67.1267 1078.01 66.7C1077.77 66.2733 1077.44 65.94 1077.03 65.7C1076.61 65.4467 1076.13 65.32 1075.59 65.32C1075.05 65.32 1074.57 65.4467 1074.15 65.7C1073.73 65.94 1073.41 66.2733 1073.17 66.7C1072.94 67.1267 1072.83 67.62 1072.83 68.18C1072.83 68.74 1072.94 69.24 1073.17 69.68C1073.41 70.12 1073.73 70.4667 1074.15 70.72C1074.57 70.96 1075.05 71.08 1075.59 71.08ZM1087.6 73.2C1086.86 73.2 1086.21 73.0467 1085.64 72.74C1085.06 72.42 1084.61 71.9867 1084.28 71.44C1083.96 70.8933 1083.8 70.2733 1083.8 69.58V66.82C1083.8 66.1267 1083.96 65.5067 1084.3 64.96C1084.63 64.4133 1085.08 63.9867 1085.66 63.68C1086.23 63.36 1086.88 63.2 1087.6 63.2C1088.46 63.2 1089.24 63.4267 1089.94 63.88C1090.64 64.32 1091.2 64.92 1091.6 65.68C1092.01 66.4267 1092.22 67.2733 1092.22 68.22C1092.22 69.1533 1092.01 70 1091.6 70.76C1091.2 71.5067 1090.64 72.1 1089.94 72.54C1089.24 72.98 1088.46 73.2 1087.6 73.2ZM1087.24 71.12C1087.77 71.12 1088.24 71 1088.64 70.76C1089.05 70.5067 1089.37 70.16 1089.6 69.72C1089.84 69.28 1089.96 68.7733 1089.96 68.2C1089.96 67.6267 1089.84 67.12 1089.6 66.68C1089.37 66.24 1089.05 65.9 1088.64 65.66C1088.24 65.4067 1087.77 65.28 1087.24 65.28C1086.7 65.28 1086.23 65.4067 1085.82 65.66C1085.4 65.9 1085.08 66.24 1084.86 66.68C1084.63 67.12 1084.52 67.6267 1084.52 68.2C1084.52 68.7733 1084.63 69.28 1084.86 69.72C1085.08 70.16 1085.4 70.5067 1085.82 70.76C1086.23 71 1086.7 71.12 1087.24 71.12ZM1082.46 77V63.4H1084.66V65.98L1084.28 68.32L1084.66 70.64V77H1082.46ZM1098.52 73.2C1097.56 73.2 1096.69 72.9867 1095.92 72.56C1095.16 72.12 1094.55 71.52 1094.1 70.76C1093.66 70 1093.44 69.1467 1093.44 68.2C1093.44 67.2533 1093.66 66.4067 1094.1 65.66C1094.54 64.9 1095.13 64.3 1095.88 63.86C1096.64 63.42 1097.48 63.2 1098.4 63.2C1099.29 63.2 1100.08 63.4067 1100.76 63.82C1101.45 64.2333 1101.99 64.8 1102.38 65.52C1102.78 66.24 1102.98 67.06 1102.98 67.98C1102.98 68.14 1102.96 68.3067 1102.94 68.48C1102.92 68.64 1102.9 68.82 1102.86 69.02H1094.98V67.22H1101.72L1100.9 67.94C1100.87 67.3533 1100.76 66.86 1100.56 66.46C1100.36 66.06 1100.07 65.7533 1099.7 65.54C1099.34 65.3267 1098.89 65.22 1098.36 65.22C1097.8 65.22 1097.31 65.34 1096.9 65.58C1096.48 65.82 1096.16 66.16 1095.94 66.6C1095.71 67.0267 1095.6 67.54 1095.6 68.14C1095.6 68.74 1095.72 69.2667 1095.96 69.72C1096.2 70.1733 1096.54 70.5267 1096.98 70.78C1097.42 71.02 1097.92 71.14 1098.5 71.14C1098.99 71.14 1099.44 71.0533 1099.86 70.88C1100.28 70.7067 1100.64 70.4533 1100.94 70.12L1102.34 71.54C1101.87 72.0867 1101.3 72.5 1100.64 72.78C1099.97 73.06 1099.26 73.2 1098.52 73.2ZM1104.74 73V63.4H1106.94V73H1104.74ZM1106.94 67.66L1106.18 67.28C1106.18 66.0667 1106.45 65.0867 1106.98 64.34C1107.53 63.58 1108.35 63.2 1109.44 63.2C1109.92 63.2 1110.35 63.2867 1110.74 63.46C1111.13 63.6333 1111.49 63.9133 1111.82 64.3L1110.38 65.78C1110.21 65.5933 1110.01 65.46 1109.8 65.38C1109.59 65.3 1109.34 65.26 1109.06 65.26C1108.45 65.26 1107.94 65.4533 1107.54 65.84C1107.14 66.2267 1106.94 66.8333 1106.94 67.66ZM1114.37 73V59.4H1116.57V73H1114.37ZM1112.07 65.4V63.4H1118.87V65.4H1112.07ZM1123.56 73.1L1119.46 63.4H1121.88L1124.68 70.52H1123.98L1126.94 63.4H1129.38L1124.92 73.1H1123.56ZM1120.7 77L1123.68 70.86L1124.92 73.1L1123.14 77H1120.7Z" fill="white"/>
</svg>
