<svg width="42" height="42" viewBox="0 0 42 42" fill="none" xmlns="http://www.w3.org/2000/svg">
<rect x="0.355225" y="0.631714" width="41.3549" height="41.3549" rx="9.18998" fill="#878787" fill-opacity="0.7"/>
<g clip-path="url(#clip0_1_235)">
<path d="M17.4053 16.3501C17.4053 16.3501 17.4951 16.4398 17.6746 16.6193C17.8541 16.7988 17.9438 17.145 17.9438 17.6578C17.9438 18.1707 17.7643 18.6066 17.4053 18.9655C17.0463 19.3245 16.6104 19.504 16.0976 19.504C15.5848 19.504 15.1489 19.3245 14.7899 18.9655C14.4309 18.6066 14.2514 18.1707 14.2514 17.6578C14.2514 17.145 14.4309 16.7091 14.7899 16.3501C15.1489 15.9911 15.5848 15.8116 16.0976 15.8116C16.6104 15.8116 17.0463 15.9911 17.4053 16.3501ZM27.7902 21.3502V25.658H14.2514V23.8118L17.3284 20.7348L18.8669 22.2733L23.7901 17.3501L27.7902 21.3502ZM28.7133 14.5808H13.3283C13.245 14.5808 13.1728 14.6113 13.1119 14.6722C13.051 14.7331 13.0206 14.8052 13.0206 14.8885V26.5811C13.0206 26.6645 13.051 26.7366 13.1119 26.7975C13.1728 26.8584 13.245 26.8888 13.3283 26.8888H28.7133C28.7966 26.8888 28.8688 26.8584 28.9297 26.7975C28.9906 26.7366 29.021 26.6645 29.021 26.5811V14.8885C29.021 14.8052 28.9906 14.7331 28.9297 14.6722C28.8688 14.6113 28.7966 14.5808 28.7133 14.5808ZM30.2518 14.8885V26.5811C30.2518 27.0042 30.1012 27.3664 29.7999 27.6677C29.4986 27.969 29.1364 28.1196 28.7133 28.1196H13.3283C12.9052 28.1196 12.543 27.969 12.2417 27.6677C11.9404 27.3664 11.7898 27.0042 11.7898 26.5811V14.8885C11.7898 14.4654 11.9404 14.1032 12.2417 13.8019C12.543 13.5007 12.9052 13.35 13.3283 13.35H28.7133C29.1364 13.35 29.4986 13.5007 29.7999 13.8019C30.1012 14.1032 30.2518 14.4654 30.2518 14.8885Z" fill="white"/>
</g>
<defs>
<clipPath id="clip0_1_235">
<rect width="18.4719" height="17.2312" fill="white" transform="matrix(1 0 0 -1 11.7859 29.3503)"/>
</clipPath>
</defs>
</svg>
