<svg width="42" height="42" viewBox="0 0 42 42" fill="none" xmlns="http://www.w3.org/2000/svg">
<rect x="0.429199" y="0.631714" width="41.3549" height="41.3549" rx="9.18998" fill="#878787" fill-opacity="0.7"/>
<g clip-path="url(#clip0_1_232)">
<path d="M29.7221 15.5039V25.9658C29.7221 26.235 29.5971 26.4241 29.347 26.5331C29.2637 26.5651 29.1836 26.5812 29.1067 26.5812C28.9336 26.5812 28.7893 26.5203 28.674 26.3985L24.7989 22.5234V24.1196C24.7989 24.8824 24.528 25.5347 23.9863 26.0763C23.4447 26.618 22.7924 26.8889 22.0296 26.8889H15.2601C14.4973 26.8889 13.845 26.618 13.3034 26.0763C12.7617 25.5347 12.4908 24.8824 12.4908 24.1196V17.3501C12.4908 16.5873 12.7617 15.935 13.3034 15.3934C13.845 14.8517 14.4973 14.5808 15.2601 14.5808H22.0296C22.7924 14.5808 23.4447 14.8517 23.9863 15.3934C24.528 15.935 24.7989 16.5873 24.7989 17.3501V18.9367L28.674 15.0712C28.7893 14.9494 28.9336 14.8885 29.1067 14.8885C29.1836 14.8885 29.2637 14.9046 29.347 14.9366C29.5971 15.0456 29.7221 15.2347 29.7221 15.5039Z" fill="white"/>
</g>
<defs>
<clipPath id="clip0_1_232">
<rect width="17.2542" height="17.2312" fill="white" transform="matrix(1 0 0 -1 12.4791 29.3503)"/>
</clipPath>
</defs>
</svg>
